<?xml version="1.0"?>
<svg xmlns="http://www.w3.org/2000/svg" height="512px" viewBox="0 -9 512 512" width="512px" class=""><g><path d="m98.480469 273.65625h50.210937c21.308594.425781 41.890625-7.753906 57.101563-22.683594 15.207031-14.933594 23.757812-35.363281 23.722656-56.675781 0-9.753906-7.902344-17.65625-17.652344-17.65625-4.523437-.34375-8.988281 1.199219-12.335937 4.265625-3.34375 3.0625-5.269532 7.378906-5.320313 11.914062-.023437 25.128907-20.386719 45.496094-45.515625 45.523438h-50.210937c-25.125-.027344-45.484375-20.390625-45.515625-45.515625v-112.003906c.03125-25.125 20.390625-45.484375 45.515625-45.515625h50.210937c25.125.03125 45.484375 20.390625 45.515625 45.515625-.054687 9.972656 7.703125 18.238281 17.65625 18.820312 9.75 0 17.652344-7.902343 17.652344-17.652343.265625-44.9375-35.886719-81.613282-80.824219-81.992188h-50.210937c-44.941407.378906-81.09375 37.058594-80.824219 82v112.296875c-.035156 21.3125 8.515625 41.742187 23.722656 56.675781 15.210938 14.929688 35.792969 23.109375 57.101563 22.683594zm0 0" data-original="#000000" class="active-path" data-old_color="#000000" fill="#FFFFFF"/><path d="m317.792969 441.378906v8.828125h79.449219v-26.484375h-167.726563v-17.652344h-52.964844v17.652344h-79.449219v-17.652344h-52.964843v17.652344h-35.308594c-4.875 0-8.828125 3.953125-8.828125 8.828125s3.953125 8.828125 8.828125 8.828125h35.308594v17.65625h52.964843v-17.65625h79.449219v17.65625h52.964844v-17.65625zm0 0" data-original="#000000" class="active-path" data-old_color="#000000" fill="#FFFFFF"/><path d="m459.035156 379.585938h35.308594v26.484374h-35.308594zm0 0" data-original="#000000" class="active-path" data-old_color="#000000" fill="#FFFFFF"/><path d="m414.898438 423.722656h79.445312v26.484375h-79.445312zm0 0" data-original="#000000" class="active-path" data-old_color="#000000" fill="#FFFFFF"/><path d="m158.898438 379.585938c0 4.875 3.949218 8.828124 8.824218 8.828124h70.621094c4.875 0 8.828125-3.953124 8.828125-8.828124s-3.953125-8.828126-8.828125-8.828126h-70.621094c-4.875 0-8.824218 3.953126-8.824218 8.828126zm0 0" data-original="#000000" class="active-path" data-old_color="#000000" fill="#FFFFFF"/><path d="m317.792969 379.585938h35.308593v26.484374h-35.308593zm0 0" data-original="#000000" class="active-path" data-old_color="#000000" fill="#FFFFFF"/><path d="m35.308594 370.757812c-4.875 0-8.824219 3.953126-8.824219 8.828126s3.949219 8.828124 8.824219 8.828124h70.621094c4.875 0 8.828124-3.953124 8.828124-8.828124s-3.953124-8.828126-8.828124-8.828126zm0 0" data-original="#000000" class="active-path" data-old_color="#000000" fill="#FFFFFF"/><path d="m370.757812 379.585938h70.621094v26.484374h-70.621094zm0 0" data-original="#000000" class="active-path" data-old_color="#000000" fill="#FFFFFF"/><path d="m503.171875 335.449219h-194.207031c-4.875 0-8.828125 3.953125-8.828125 8.828125v8.824218c0 4.878907 3.953125 8.828126 8.828125 8.828126h194.207031c4.875 0 8.828125-3.949219 8.828125-8.828126v-8.824218c0-4.875-3.953125-8.828125-8.828125-8.828125zm0 0" data-original="#000000" class="active-path" data-old_color="#000000" fill="#FFFFFF"/><path d="m387.53125 203.238281c-1.171875-.136719-2.351562-.207031-3.53125-.203125-14.253906-.039062-27.429688 7.585938-34.503906 19.964844-7.070313 12.375-6.945313 27.597656.324218 39.859375.152344.246094.292969.503906.414063.769531 7.230469 11.707032 20.003906 18.839844 33.765625 18.855469h.882812c.238282 0 .882813-.070313 1.128907-.070313 1.105469.023438 2.199219.242188 3.230469.640626l.390624.152343c2.382813.917969 4.257813 2.8125 5.152344 5.203125.894532 2.390625.722656 5.050782-.472656 7.304688-3.90625 6.699218-5.941406 14.324218-5.898438 22.078125h88.277344c-.03125-24.363281-19.773437-44.109375-44.140625-44.136719-.816406-.03125-1.636719 0-2.453125.085938-3.164062.453124-6.328125-.839844-8.269531-3.382813-1.9375-2.542969-2.351563-5.933594-1.078125-8.867187 1.96875-4.519532 2.980469-9.394532 2.972656-14.320313 0-.351563 0-.707031 0-1.050781 0-.441406.035156-.886719.105469-1.324219-.066406-.464844-.097656-.933594-.085937-1.402344.023437-1.417969-.042969-2.835937-.203126-4.246093.007813-.355469.035157-.707032.089844-1.058594-.054687-.34375-.082031-.6875-.089844-1.035156 0-.246094.175782-.441407.21875-.6875.121094-.574219.304688-1.132813.539063-1.667969.679687-1.558594 1.773437-2.902344 3.160156-3.882813.96875-.59375 2.023438-1.03125 3.125-1.300781.230469-.042969.417969-.183594.644531-.210937.335938.007812.671876.035156 1.007813.082031.359375-.054688.722656-.085938 1.085937-.089844 1.210938.144531 2.425782.21875 3.644532.21875 16.066406 0 30.550781-9.675781 36.699218-24.519531 6.148438-14.84375 2.75-31.929688-8.609374-43.292969-11.359376-11.359375-28.445313-14.757813-43.289063-8.609375-14.847656 6.148438-24.523437 20.632812-24.523437 36.699219 0 1.351562.078124 2.648437.148437 3.964843h-.148437c.109374.582032.15625 1.171876.140624 1.765626-.261718 2.339843-1.449218 4.476562-3.304687 5.925781-1.851563 1.453125-4.214844 2.097656-6.546875 1.789062zm0 0" data-original="#000000" class="active-path" data-old_color="#000000" fill="#FFFFFF"/><path d="m494.34375 0c-9.75 0-17.652344 7.90625-17.652344 17.65625v88.273438c0 4.875-3.953125 8.828124-8.828125 8.828124h-123.585937c-4.875 0-8.828125-3.953124-8.828125-8.828124v-88.273438c0-9.75-7.90625-17.65625-17.65625-17.65625s-17.65625 7.90625-17.65625 17.65625v239.84375c0 9.75 7.90625 17.65625 17.65625 17.65625 5.855469-.054688 11.292969-3.035156 14.484375-7.945312-8.539063-17.550782-7.339844-38.28125 3.171875-54.730469v-53.582031c0-4.878907 3.953125-8.828126 8.828125-8.828126h51.394531c14.375-14.9375 35.699219-20.941406 55.757813-15.703124 20.058593 5.238281 35.722656 20.902343 40.960937 40.960937s-.765625 41.382813-15.699219 55.761719v26.410156c0 9.75 7.902344 17.65625 17.652344 17.65625s17.65625-7.90625 17.65625-17.65625v-239.84375c0-9.75-7.90625-17.65625-17.65625-17.65625zm0 0" data-original="#000000" class="active-path" data-old_color="#000000" fill="#FFFFFF"/><path d="m459.035156 467.863281h35.308594v26.480469h-35.308594zm0 0" data-original="#000000" class="active-path" data-old_color="#000000" fill="#FFFFFF"/><path d="m317.792969 467.863281h35.308593v26.480469h-35.308593zm0 0" data-original="#000000" class="active-path" data-old_color="#000000" fill="#FFFFFF"/><path d="m370.757812 467.863281h70.621094v26.480469h-70.621094zm0 0" data-original="#000000" class="active-path" data-old_color="#000000" fill="#FFFFFF"/></g> </svg>
