<?xml version="1.0" standalone="no"?><!DOCTYPE svg PUBLIC "-//W3C//DTD SVG 1.1//EN" "http://www.w3.org/Graphics/SVG/1.1/DTD/svg11.dtd"><svg t="1595530269256" class="icon" viewBox="0 0 1024 1024" version="1.1" xmlns="http://www.w3.org/2000/svg" p-id="7348" width="32" height="32" xmlns:xlink="http://www.w3.org/1999/xlink"><defs><style type="text/css"></style></defs><path d="M512 1024C229.376 1024 0 795.136 0 512S229.376 0 512 0s512 229.376 512 512-229.376 512-512 512z m0-964.608c-250.368 0-453.12 202.752-453.12 453.12s202.752 453.12 453.12 453.12 453.12-202.752 453.12-453.12-202.752-453.12-453.12-453.12z" p-id="7349" fill="#FCA311"></path><path d="M444.928 572.416l53.248 13.312c-11.264 44.032-31.232 77.312-60.416 100.352-29.184 23.04-64.512 34.304-106.496 34.304-43.52 0-78.848-8.704-105.984-26.624-27.136-17.92-48.128-43.52-61.952-76.8-14.336-33.792-21.504-69.632-21.504-108.032 0-41.984 8.192-78.848 24.064-110.08S204.8 344.064 234.496 327.68c29.696-16.384 61.952-24.576 97.792-24.576 40.448 0 74.24 10.24 101.888 30.72 27.648 20.48 46.592 49.664 57.344 86.528l-52.736 12.288c-9.216-29.184-23.04-50.688-40.448-64-17.92-13.312-39.936-19.968-67.072-19.968-31.232 0-56.832 7.68-77.824 22.528-20.992 14.848-35.328 34.816-44.032 59.904-8.192 25.088-12.8 50.688-12.8 77.312 0 34.304 5.12 64 14.848 89.6 10.24 25.6 25.6 44.544 46.592 57.344s44.032 18.944 68.608 18.944c29.696 0 55.296-8.704 75.776-25.6 20.992-16.896 35.328-42.496 42.496-76.288zM565.76 713.728V310.784h53.248V476.16h209.408V310.784h53.248v402.944h-53.248v-189.952h-209.408v189.952h-53.248z" p-id="7350" fill="#FCA311"></path></svg>