<svg id="Layer_1" data-name="Layer 1" xmlns="http://www.w3.org/2000/svg" viewBox="0 0 496 496"><defs><style>.cls-1{fill:#26a682;}</style></defs><path class="cls-1" d="M504,256c0,137-111,248-248,248S8,393,8,256,119,8,256,8,504,119,504,256ZM360.4,227.1,288,302.6V120a23.94,23.94,0,0,0-24-24H248a23.94,23.94,0,0,0-24,24V302.6l-72.4-75.5a24,24,0,0,0-34.3-.4l-10.9,11a23.9,23.9,0,0,0,0,33.9L239,404.3a23.9,23.9,0,0,0,33.9,0L405.6,271.6a23.9,23.9,0,0,0,0-33.9l-10.9-11a24,24,0,0,0-34.3.4Z" transform="translate(-8 -8)"/></svg>