<?xml version="1.0" standalone="no"?><!DOCTYPE svg PUBLIC "-//W3C//DTD SVG 1.1//EN" "http://www.w3.org/Graphics/SVG/1.1/DTD/svg11.dtd"><svg t="1595726122716" class="icon" viewBox="0 0 1024 1024" version="1.1" xmlns="http://www.w3.org/2000/svg" p-id="2088" width="16" height="16" xmlns:xlink="http://www.w3.org/1999/xlink"><defs><style type="text/css"></style></defs><path d="M928 0H96C43.195733 0 0 43.195733 0 96v832C0 980.804267 43.195733 1024 96 1024H512V576h-128v-128H512V384c0-105.796267 86.203733-192 192-192h128v128h-128a64.187733 64.187733 0 0 0-64 64v64h192l-32 128H640V1024h288C980.804267 1024 1024 980.804267 1024 928V96C1024 43.195733 980.804267 0 928 0z" p-id="2089" fill="#ffffff"></path></svg>